<?xml version="1.0" encoding="utf-8" ?>
<svg xmlns="http://www.w3.org/2000/svg" xmlns:xlink="http://www.w3.org/1999/xlink" width="1024" height="1024">
	<path transform="matrix(1.57538 0 0 1.57538 0 -3.05176e-05)" d="M313.963 172.414C314.215 172.392 314.467 172.379 314.72 172.377C319.005 172.339 322.093 174.397 325.065 177.228C326.63 175.539 328.254 174.204 330.398 173.303C332.883 172.26 335.669 172.111 338.15 173.246C341.419 174.741 343.793 178.092 344.964 181.415C346.624 186.123 345.134 190.18 343.086 194.413C352.293 195.231 366.822 201.531 375.245 205.874C379.317 207.973 383.174 210.478 387.28 212.509C389.352 210.276 391.795 208.554 394.454 207.087C406.792 200.281 444.723 190.496 457.948 194.619C461.235 195.644 463.314 198.255 464.899 201.18C470.398 211.327 471.771 229.694 468.487 240.759C473.822 242.167 478.439 244.944 481.781 249.41C483.915 252.26 485.223 255.8 484.615 259.385C484.002 262.999 481.813 265.397 478.975 267.489C479.996 269.164 480.919 270.904 481.375 272.827C482.348 276.941 481.095 281.195 478.926 284.721C475.186 290.801 468.905 292.654 462.395 294.193C466.9 296.974 476.246 303.293 478.649 307.838C479.619 309.672 479.94 311.858 479.218 313.834C478.3 316.35 475.765 318.214 473.41 319.272C475.525 323.825 478.146 328.2 480.427 332.683C488.124 329.215 494.927 327.307 503.443 327.031C508.538 326.866 513.674 327.023 517.561 330.801C522.846 335.937 524.711 343.569 524.803 350.714C524.939 361.334 518.658 373.521 511.389 381.029C517.727 380.332 523.438 379.252 529.317 382.576C533.528 384.957 536.131 388.714 537.368 393.327C539.139 399.928 538.435 406.156 534.972 412.067C528.067 423.854 515.792 427.826 503.411 431.149C506.939 432.823 510.238 435.435 512.385 438.736C514.359 441.769 515.141 445.572 514.296 449.115C512.818 455.311 505.605 460.834 500.348 463.867C485.28 472.564 461.809 470.436 445.546 466.023Q445.189 468.447 444.538 470.808C441.679 481.082 435.354 489.952 425.995 495.231C416.168 500.775 404.764 501.352 394.031 498.369C379.011 494.193 366.12 483.161 358.494 469.717C353.483 480.97 343.828 489.068 334.599 496.765C332.363 498.735 329.856 501.209 327.142 502.463C325.737 503.112 324.56 503.162 323.134 502.549C320 501.202 317.211 498.443 314.626 496.258C306.233 489.164 295.755 480.238 291.566 469.788Q290.191 471.998 288.728 474.151C279.984 486.757 266.521 496.765 251.224 499.473C240.553 501.363 229.403 499.399 220.504 493.042C211.387 486.529 206.34 476.846 204.483 465.969C192.045 469.768 172.487 471.101 159.778 467.98C151.557 465.961 141.371 460.08 137.043 452.569C135.226 449.415 134.912 445.697 135.99 442.237C137.583 437.128 141.746 433.617 146.324 431.224C134.389 427.03 125.628 426.132 117.187 415.276C112.922 409.79 111.043 403.657 111.921 396.746C112.566 391.667 114.618 386.781 118.858 383.666C124.958 379.185 131.747 380.076 138.744 381.109C133.507 376.119 129.564 368.746 127.074 361.986C124.292 354.432 124.499 344.715 127.9 337.38C129.684 333.532 132.673 329.365 136.817 327.929C139.575 326.972 142.68 326.96 145.569 327.013C154.456 327.175 161.671 329.064 169.647 332.835C171.479 328.239 174.27 323.771 176.618 319.407C174.537 318.294 172.514 317.003 171.313 314.896C170.369 313.239 170.164 311.359 170.673 309.525C172.172 304.125 182.846 297.123 187.663 294.231C183.963 293.338 180.317 292.424 176.999 290.491Q176.608 290.261 176.229 290.012Q175.85 289.762 175.485 289.494Q175.119 289.225 174.767 288.939Q174.415 288.652 174.079 288.349Q173.742 288.045 173.421 287.724Q173.1 287.404 172.796 287.067Q172.491 286.731 172.204 286.38Q171.917 286.029 171.648 285.663Q171.379 285.298 171.129 284.919Q170.879 284.541 170.649 284.15Q170.418 283.76 170.208 283.358Q169.997 282.956 169.807 282.544Q169.617 282.132 169.448 281.711Q169.279 281.29 169.132 280.861Q168.984 280.432 168.859 279.997Q168.733 279.561 168.63 279.119C167.562 274.694 168.84 271.173 171.137 267.456C168.345 265.736 166.13 263.353 165.42 260.062C164.689 256.672 165.734 253.205 167.575 250.345C170.769 245.385 175.595 242.157 181.319 240.947Q180.626 236.39 180.162 231.805C179.181 221.354 180.232 206.064 187.441 197.677C189.632 195.128 191.765 194.274 195.065 193.993Q199.146 193.663 203.24 193.747Q207.334 193.83 211.398 194.326C222.131 195.68 245.329 201.78 254.817 206.717C257.777 208.257 260.373 210.332 262.902 212.485C273.862 206.096 294.301 195.258 306.894 194.515C306.31 193.326 305.698 192.127 305.256 190.876C303.86 186.929 303.965 183.181 305.885 179.426C307.644 175.988 310.286 173.594 313.963 172.414Z"/>
	<path fill="#B84D77" transform="matrix(1.57538 0 0 1.57538 0 -3.05176e-05)" d="M438.386 365.529C439.949 363.794 441.115 361.759 443.371 360.884C442.211 363.903 440.559 367.143 438.243 369.445L437.964 366.768L438.386 365.529Z"/>
	<path fill="#B84D77" transform="matrix(1.57538 0 0 1.57538 0 -3.05176e-05)" d="M206.56 360.679C208.676 361.8 210.068 363.763 211.595 365.558L212.058 367.083L211.785 369.438C209.386 367.066 207.752 363.796 206.56 360.679Z"/>
	<path fill="#B84D77" transform="matrix(1.57538 0 0 1.57538 0 -3.05176e-05)" d="M309.485 185.868L309.688 185.932C310.058 186.697 310.492 187.105 310.976 187.764C311.033 187.843 311.057 187.941 311.097 188.03C312.213 189.802 314.495 192.505 316.639 192.916C316.808 192.948 316.979 192.965 317.149 192.989L317.331 193.068C317.65 194.193 318.199 194.713 319.209 195.255C322.225 196.874 326.355 196.933 329.537 195.8C330.64 195.408 331.393 194.955 332.225 194.141C332.302 193.907 332.471 193.53 332.483 193.29C334.994 192.258 337.514 190.52 338.843 188.089C339.2 187.452 339.757 187.035 340.292 186.547L340.576 186.514C339.329 193.988 330.68 199.604 324.981 203.922C321.205 201.052 317.32 198.095 313.985 194.715C311.594 192.291 309.469 189.41 309.485 185.868Z"/>
	<path fill="#C9DDDF" transform="matrix(1.57538 0 0 1.57538 0 -3.05176e-05)" d="M212.058 367.083C215.747 369.812 218.905 373.518 222.325 376.598C227.671 381.411 234.511 385.911 240.893 389.241L241.399 388.898L241.952 390.257C243.066 393.186 243.325 395.073 242.541 398.166C229.165 390.292 221.063 381.748 211.785 369.438L212.058 367.083Z"/>
	<path fill="#C9DDDF" transform="matrix(1.57538 0 0 1.57538 0 -3.05176e-05)" d="M408.586 388.892L409.408 389.021C421.26 382.797 428.43 375.789 437.964 366.768L438.243 369.445C428.597 382.138 421.6 389.526 407.803 397.941C407.372 397.55 407.491 397.736 407.24 397.154C406.236 394.832 407.218 392.434 408.051 390.239L408.586 388.892Z"/>
	<path fill="#B84D77" transform="matrix(1.57538 0 0 1.57538 0 -3.05176e-05)" d="M298.359 453.789C298.045 455.963 299.553 457.225 299.282 459.4C299.526 461.06 299.66 462.327 301.147 463.358C301.444 463.564 301.577 463.625 301.875 463.781C302.402 465.481 304.93 469.883 306.515 470.777C306.636 470.845 306.764 470.902 306.888 470.965C307.165 471.182 307.38 471.324 307.57 471.625C309.908 475.939 316.038 480.175 320.722 481.499C325.338 482.804 329.796 481.83 333.879 479.508C336.542 477.994 341.252 474.608 342.342 471.702L342.961 470.926C345.058 470.013 347.328 465.712 348.453 463.726C349.103 463.301 349.572 462.884 350.006 462.229C351.037 460.676 350.592 458.809 350.19 457.142L351.6 455.784L351.648 455.917L352.15 455.525C352.818 457.164 352.961 459.116 352.746 460.858C351.222 473.248 334.198 486.646 324.973 494.032C315.672 486.489 305.292 478.506 299.598 467.725C297.058 462.915 296.777 458.972 298.359 453.789Z"/>
	<path fill="#E75483" transform="matrix(1.57538 0 0 1.57538 0 -3.05176e-05)" d="M325.032 182.419C327.608 180.665 331.448 176.776 334.779 177.434C336.754 177.824 338.283 179.615 339.298 181.239C340.418 183.031 340.703 184.433 340.576 186.514L340.292 186.547C339.757 187.035 339.2 187.452 338.843 188.089C337.514 190.52 334.994 192.258 332.483 193.29C332.471 193.53 332.302 193.907 332.225 194.141C331.393 194.955 330.64 195.408 329.537 195.8C326.355 196.933 322.225 196.874 319.209 195.255C318.199 194.713 317.65 194.193 317.331 193.068L317.149 192.989C316.979 192.965 316.808 192.948 316.639 192.916C314.495 192.505 312.213 189.802 311.097 188.03C311.057 187.941 311.033 187.843 310.976 187.764C310.492 187.105 310.058 186.697 309.688 185.932L309.485 185.868C309.333 183.346 310.264 181.483 311.906 179.593C312.913 178.433 314.12 177.471 315.707 177.352C319.201 177.092 322.212 180.833 325.032 182.419Z"/>
	<path fill="#F9F3F4" transform="matrix(1.57538 0 0 1.57538 0 -3.05176e-05)" d="M317.149 192.989C316.573 192.139 316.051 191.701 316.238 190.596C316.376 189.778 316.925 189.393 317.573 189.002C318.345 189.162 318.793 189.255 319.295 189.955C319.803 190.662 319.673 191.079 319.515 191.849C318.779 192.669 318.421 192.936 317.331 193.068L317.149 192.989Z"/>
	<path fill="#F9F3F4" transform="matrix(1.57538 0 0 1.57538 0 -3.05176e-05)" d="M331.734 188.743C332.633 189.16 333.203 189.447 333.834 190.254C333.913 191.228 333.865 191.698 333.201 192.497C332.974 192.771 332.727 193.031 332.483 193.29C331.543 192.888 331.142 192.643 330.495 191.853C330.326 191.102 330.292 190.658 330.703 189.971C330.964 189.535 331.391 189.12 331.734 188.743Z"/>
	<path fill="#F9F3F4" transform="matrix(1.57538 0 0 1.57538 0 -3.05176e-05)" d="M309.688 185.932C309.998 183.997 311.98 181.173 313.543 180.032C314.066 179.65 314.508 179.544 315.153 179.48C315.965 179.838 316.193 179.956 316.639 180.78C317.256 181.924 316.952 183.839 316.46 184.967C315.831 186.406 314.502 187.559 312.994 188.009C312.377 188.193 311.725 188.109 311.097 188.03C311.057 187.941 311.033 187.843 310.976 187.764C310.492 187.105 310.058 186.697 309.688 185.932Z"/>
	<path fill="#F9F3F4" transform="matrix(1.57538 0 0 1.57538 0 -3.05176e-05)" d="M338.843 188.089C338.501 188.097 338.158 188.103 337.815 188.086C336.543 188.021 335.156 187.15 334.347 186.19C333.4 185.065 332.902 183.516 333.037 182.048C333.136 180.965 333.471 180.317 334.322 179.629C335.298 179.475 335.819 179.491 336.627 180.108C338.525 181.556 339.98 184.202 340.292 186.547C339.757 187.035 339.2 187.452 338.843 188.089Z"/>
	<path fill="#C9DDDF" transform="matrix(1.57538 0 0 1.57538 0 -3.05176e-05)" d="M281.321 402.348C284.993 401.827 296.661 404.742 301.293 405.278C315.078 406.873 328.051 407.42 341.895 406.021Q350.297 405.145 358.618 403.693C361.208 403.261 364.294 402.38 366.894 402.356C367.344 402.351 367.62 402.481 368.035 402.631C368.072 402.644 368.109 402.653 368.146 402.664C360.974 408.398 348.545 411.066 339.483 412.453C322.243 415.092 295.683 412.917 281.321 402.348Z"/>
	<path fill="#C9DDDF" transform="matrix(1.57538 0 0 1.57538 0 -3.05176e-05)" d="M444.783 444.334C448.165 446.007 451.377 447.811 454.952 449.082C465.846 452.955 484.538 455.903 495.474 452.21C498.043 451.342 502.649 448.711 505.232 449.302C502.932 452.036 500 454.509 496.955 456.375C482.565 465.19 461.802 461.507 446.315 457.783C446.32 453.155 445.601 448.868 444.783 444.334Z"/>
	<path fill="#C9DDDF" transform="matrix(1.57538 0 0 1.57538 0 -3.05176e-05)" d="M144.209 448.46C146.185 448.667 148.357 449.889 150.201 450.622C153.281 451.846 156.412 452.961 159.708 453.43C170.714 454.996 185.464 452.569 196.005 448.807C198.889 447.778 201.658 445.477 204.592 444.808C204.787 444.764 204.983 444.727 205.178 444.687C204.372 449.098 203.685 453.284 203.71 457.791C188.188 461.437 167.469 465.227 153.055 456.398C149.871 454.447 146.299 451.589 144.209 448.46Z"/>
	<path fill="#B84D77" transform="matrix(1.57538 0 0 1.57538 0 -3.05176e-05)" d="M284.63 464.884C278.95 476.114 267.405 485.812 255.474 489.717C246.817 492.55 237.391 492.644 229.153 488.445C223.586 485.607 218.11 480.297 215.848 474.39C217.59 475.107 219.118 476.331 220.737 477.291C225.535 480.136 230.45 481.627 236.05 481.786C248.076 482.127 261.248 475.903 269.838 467.749L270.562 467.569C275.489 467.678 279.98 466.316 284.63 464.884Z"/>
	<path fill="#B84D77" transform="matrix(1.57538 0 0 1.57538 0 -3.05176e-05)" d="M365.309 464.802C369.949 466.325 374.349 467.65 379.296 467.54L380.368 467.74C384.728 473.966 399.324 479.862 406.736 481.166C413.979 482.44 421.375 481.735 427.846 478.076C429.851 476.942 431.97 475.127 434.144 474.421C431.849 480.177 426.702 485.338 421.275 488.21C413.094 492.541 403.677 492.625 394.975 489.873C382.661 485.978 371.267 476.244 365.309 464.802Z"/>
	<path fill="#B84D77" transform="matrix(1.57538 0 0 1.57538 0 -3.05176e-05)" d="M295.716 418.78C307.129 422.572 328.815 422.427 340.919 421.151C345.364 420.683 349.742 419.837 354.117 418.943C351.538 425.494 350.42 431.653 349.659 438.617L349.196 438.854C347.544 438.461 345.835 438.094 344.134 438.008C336.688 437.628 330.457 440.674 325.008 445.502C323.556 444.181 322.045 442.93 320.379 441.886C313.997 437.885 307.576 437.348 300.346 438.968C299.818 431.844 298.556 425.344 295.716 418.78Z"/>
	<path fill="#E75483" transform="matrix(1.57538 0 0 1.57538 0 -3.05176e-05)" d="M325.026 454.845C330.751 450.467 336.81 445.009 344.702 446.213C346.95 446.555 348.721 447.726 349.989 449.599C351.222 451.419 351.653 453.425 352.15 455.525L351.648 455.917L351.6 455.784L350.19 457.142C350.592 458.809 351.037 460.676 350.006 462.229C349.572 462.884 349.103 463.301 348.453 463.726C347.328 465.712 345.058 470.013 342.961 470.926L342.342 471.702C341.252 474.608 336.542 477.994 333.879 479.508C329.796 481.83 325.338 482.804 320.722 481.499C316.038 480.175 309.908 475.939 307.57 471.625C307.38 471.324 307.165 471.182 306.888 470.965C306.764 470.902 306.636 470.845 306.515 470.777C304.93 469.883 302.402 465.481 301.875 463.781C301.577 463.625 301.444 463.564 301.147 463.358C299.66 462.327 299.526 461.06 299.282 459.4C299.553 457.225 298.045 455.963 298.359 453.789C299.039 451.115 300.037 448.469 302.593 447.045C305.456 445.45 309.522 446.033 312.53 447.009C318.535 448.957 320.286 451.688 325.026 454.845Z"/>
	<path fill="#F9F3F4" transform="matrix(1.57538 0 0 1.57538 0 -3.05176e-05)" d="M342.342 471.702C341.273 472.016 340.164 472.292 339.164 471.607C338.461 471.126 338.152 470.334 338.06 469.519C337.918 468.26 338.166 467.37 338.974 466.412C339.49 466.179 339.702 465.999 340.292 466.053C341.205 466.137 341.759 466.498 342.34 467.196C343.186 468.213 343.082 469.706 342.961 470.926L342.342 471.702Z"/>
	<path fill="#F9F3F4" transform="matrix(1.57538 0 0 1.57538 0 -3.05176e-05)" d="M306.888 470.965C306.934 469.194 307.148 467.283 308.402 465.929C309.005 465.685 309.293 465.535 309.937 465.869C311.029 466.434 311.781 467.922 311.979 469.085C312.151 470.097 311.948 470.705 311.344 471.501C310.446 472.005 309.447 472.166 308.437 471.914C308.127 471.837 307.878 471.736 307.57 471.625C307.38 471.324 307.165 471.182 306.888 470.965Z"/>
	<path fill="#F9F3F4" transform="matrix(1.57538 0 0 1.57538 0 -3.05176e-05)" d="M299.282 459.4C299.911 456.342 301.175 450.671 304.193 449.025C304.955 448.609 305.162 448.654 305.97 448.805C306.964 449.589 307.411 450.375 307.601 451.642C308.067 454.755 306.814 459.882 304.833 462.329C304.104 463.231 302.943 463.491 301.875 463.781C301.577 463.625 301.444 463.564 301.147 463.358C299.66 462.327 299.526 461.06 299.282 459.4Z"/>
	<path fill="#F9F3F4" transform="matrix(1.57538 0 0 1.57538 0 -3.05176e-05)" d="M348.453 463.726C347.835 463.607 347.149 463.51 346.558 463.295C345.471 462.9 344.822 461.93 344.305 460.947C343.016 458.499 341.645 453.478 342.585 450.736C342.906 449.799 343.398 449.382 344.261 448.966C345.001 449.004 345.516 449.101 346.128 449.551C348.614 451.376 349.758 454.188 350.19 457.142C350.592 458.809 351.037 460.676 350.006 462.229C349.572 462.884 349.103 463.301 348.453 463.726Z"/>
	<defs>
		<linearGradient id="gradient_0" gradientUnits="userSpaceOnUse" x1="244.80989" y1="480.32364" x2="225.58479" y2="419.84763">
			<stop offset="0" stop-color="#E75484"/>
			<stop offset="1" stop-color="#FF89AF"/>
		</linearGradient>
	</defs>
	<path fill="url(#gradient_0)" transform="matrix(1.57538 0 0 1.57538 0 -3.05176e-05)" d="M232.325 416.134L232.281 416.403C231.762 419.386 230.766 422.214 230.353 425.251C229.159 434.044 231.792 443.587 236.815 450.831Q237.364 451.621 237.95 452.383Q238.537 453.145 239.16 453.877Q239.783 454.609 240.442 455.31Q241.1 456.011 241.792 456.678Q242.484 457.346 243.208 457.979Q243.931 458.612 244.685 459.209Q245.439 459.806 246.222 460.365Q247.004 460.924 247.813 461.444Q248.621 461.964 249.455 462.444Q250.288 462.924 251.144 463.362Q252 463.801 252.876 464.197Q253.752 464.593 254.647 464.945Q255.541 465.298 256.452 465.606Q257.363 465.915 258.288 466.178Q259.213 466.441 260.149 466.659Q261.086 466.876 262.032 467.048C264.603 467.503 267.234 467.602 269.838 467.749C261.248 475.903 248.076 482.127 236.05 481.786C230.45 481.627 225.535 480.136 220.737 477.291C219.118 476.331 217.59 475.107 215.848 474.39C212.369 466.964 211.549 459.134 212.608 451.008C214.35 437.643 221.681 424.431 232.325 416.134Z"/>
	<defs>
		<linearGradient id="gradient_1" gradientUnits="userSpaceOnUse" x1="405.29916" y1="480.34232" x2="421.94128" y2="419.125">
			<stop offset="0" stop-color="#E75484"/>
			<stop offset="1" stop-color="#FF8AB0"/>
		</linearGradient>
	</defs>
	<path fill="url(#gradient_1)" transform="matrix(1.57538 0 0 1.57538 0 -3.05176e-05)" d="M417.623 416.101C428.27 424.184 435.564 437.567 437.377 450.75C438.509 458.985 437.615 466.878 434.144 474.421C431.97 475.127 429.851 476.942 427.846 478.076C421.375 481.735 413.979 482.44 406.736 481.166C399.324 479.862 384.728 473.966 380.368 467.74C383.465 467.566 386.532 467.397 389.571 466.727Q390.501 466.52 391.42 466.267Q392.34 466.014 393.245 465.717Q394.151 465.42 395.041 465.079Q395.931 464.738 396.804 464.354Q397.676 463.97 398.529 463.544Q399.381 463.118 400.212 462.651Q401.043 462.184 401.85 461.677Q402.657 461.17 403.439 460.624Q404.22 460.078 404.974 459.495Q405.728 458.912 406.452 458.292Q407.176 457.673 407.87 457.019Q408.563 456.365 409.224 455.678Q409.885 454.991 410.511 454.272Q411.137 453.554 411.728 452.806Q412.318 452.057 412.872 451.281Q413.425 450.505 413.94 449.703C418.391 442.722 420.707 433.804 419.65 425.537C419.238 422.315 418.32 419.26 417.623 416.101Z"/>
	<path fill="#F9F3F4" transform="matrix(1.57538 0 0 1.57538 0 -3.05176e-05)" d="M359.079 430.809C360.38 425.3 362.379 420.175 366.059 415.799C371.215 409.668 378.071 406.564 385.997 405.941Q387.059 405.849 388.125 405.809Q389.19 405.77 390.256 405.783Q391.322 405.797 392.386 405.863Q393.45 405.93 394.51 406.049Q395.569 406.168 396.621 406.34Q397.673 406.512 398.716 406.735Q399.758 406.959 400.788 407.234Q401.818 407.51 402.833 407.836Q403.848 408.162 404.846 408.538Q405.843 408.914 406.821 409.339Q407.799 409.764 408.754 410.238Q409.709 410.711 410.64 411.231Q411.571 411.751 412.475 412.317Q413.378 412.883 414.253 413.492Q415.127 414.102 415.97 414.755Q416.813 415.407 417.623 416.101C418.32 419.26 419.238 422.315 419.65 425.537C420.707 433.804 418.391 442.722 413.94 449.703Q413.425 450.505 412.872 451.281Q412.318 452.057 411.728 452.806Q411.137 453.554 410.511 454.272Q409.885 454.991 409.224 455.678Q408.563 456.365 407.87 457.019Q407.176 457.673 406.452 458.292Q405.728 458.912 404.974 459.495Q404.22 460.078 403.438 460.624Q402.657 461.17 401.85 461.677Q401.043 462.184 400.212 462.651Q399.381 463.118 398.529 463.544Q397.676 463.97 396.804 464.354Q395.931 464.738 395.041 465.079Q394.151 465.42 393.245 465.717Q392.34 466.014 391.42 466.267Q390.501 466.52 389.571 466.727C386.532 467.397 383.465 467.566 380.368 467.74L379.296 467.54C374.349 467.65 369.949 466.325 365.309 464.802C359.488 455.283 356.839 441.734 359.079 430.809Z"/>
	<path fill="#C9DDDF" transform="matrix(1.57538 0 0 1.57538 0 -3.05176e-05)" d="M359.079 430.809C359.13 430.902 359.183 430.994 359.232 431.088C360.627 433.766 361.106 437.135 361.931 440.04C363.072 444.055 364.842 447.991 366.892 451.619C368.672 454.77 370.657 457.803 373.041 460.533C374.948 462.718 377.944 465.037 379.296 467.54C374.349 467.65 369.949 466.325 365.309 464.802C359.488 455.283 356.839 441.734 359.079 430.809Z"/>
	<path fill="#F9F3F4" transform="matrix(1.57538 0 0 1.57538 0 -3.05176e-05)" d="M232.325 416.134Q233.14 415.436 233.989 414.779Q234.838 414.123 235.719 413.509Q236.599 412.896 237.509 412.327Q238.419 411.758 239.357 411.235Q240.294 410.713 241.256 410.237Q242.218 409.762 243.203 409.335Q244.187 408.908 245.192 408.53Q246.197 408.153 247.219 407.826Q248.241 407.499 249.278 407.224Q250.316 406.948 251.365 406.725Q252.415 406.501 253.475 406.33Q254.534 406.159 255.601 406.042Q256.668 405.924 257.739 405.859Q258.81 405.794 259.883 405.783Q260.956 405.772 262.029 405.814Q263.101 405.856 264.17 405.952C272.015 406.597 278.864 409.744 283.961 415.823C287.189 419.672 289.035 423.977 290.448 428.753C293.185 439.771 291.046 454.409 285.084 464.171Q284.863 464.531 284.63 464.884C279.98 466.316 275.489 467.678 270.562 467.569L269.838 467.749C267.234 467.602 264.603 467.503 262.032 467.048Q261.086 466.876 260.149 466.659Q259.213 466.441 258.288 466.178Q257.363 465.915 256.452 465.606Q255.541 465.298 254.647 464.945Q253.752 464.593 252.876 464.197Q252 463.801 251.144 463.362Q250.288 462.924 249.455 462.444Q248.621 461.964 247.813 461.444Q247.004 460.924 246.222 460.365Q245.439 459.806 244.685 459.209Q243.931 458.612 243.208 457.979Q242.484 457.346 241.792 456.678Q241.1 456.011 240.442 455.31Q239.783 454.609 239.16 453.877Q238.537 453.145 237.95 452.383Q237.364 451.621 236.815 450.831C231.792 443.587 229.159 434.044 230.353 425.251C230.766 422.214 231.762 419.386 232.281 416.403L232.325 416.134Z"/>
	<path fill="#C9DDDF" transform="matrix(1.57538 0 0 1.57538 0 -3.05176e-05)" d="M290.448 428.753C293.185 439.771 291.046 454.409 285.084 464.171Q284.863 464.531 284.63 464.884C279.98 466.316 275.489 467.678 270.562 467.569C271.978 464.955 275.27 462.611 277.23 460.274C284.413 451.712 289.566 439.94 290.448 428.753Z"/>
	<path fill="#F9F3F4" transform="matrix(1.57538 0 0 1.57538 0 -3.05176e-05)" d="M178.537 258.444C178.063 257.363 178.008 256.365 178.037 255.192C178.215 248.021 188.475 249.406 190.967 246.177C192.595 244.069 190.724 236.925 190.5 234.28C189.856 226.665 189.814 210.8 194.962 205.057C196.845 202.957 199.32 202.049 202.094 201.926C212.25 201.475 240.5 208.938 249.94 213.591C252.947 215.073 255.344 216.943 257.791 219.217C253.398 221.757 249.193 223.99 245.163 227.124C242.321 229.464 239.585 231.786 237.213 234.62C236.596 236.209 228.883 243.874 226.912 246.313C224.233 249.628 222.249 254.637 218.811 257.144L218.317 257.212C214.367 263.361 210.803 269.61 207.64 276.199C206.037 279.964 204.589 284.039 202.597 287.603C201.765 285.653 200.743 284.335 199.258 282.855C193.795 282.837 187.564 283.307 182.529 280.819C180.245 279.69 178.99 278.191 178.194 275.778C175.957 268.999 181.698 269.924 183.259 266.295C183.99 264.595 179.401 260.268 178.537 258.444Z"/>
	<path fill="#C9DDDF" transform="matrix(1.57538 0 0 1.57538 0 -3.05176e-05)" d="M212.961 224.707C219.705 220.686 231.553 221.22 238.942 223.057C240.923 223.549 243.591 224.304 244.687 226.154C244.903 226.518 244.997 226.752 245.163 227.124C242.321 229.464 239.585 231.786 237.213 234.62C229.272 226.92 223.659 225.275 212.961 224.707Z"/>
	<path fill="#C9DDDF" transform="matrix(1.57538 0 0 1.57538 0 -3.05176e-05)" d="M178.537 258.444C180.378 258.927 182.429 259.768 184.321 259.889C186.995 260.06 191.478 258.221 193.611 259.688C193.994 260.383 194.229 261.084 194.034 261.884C193.626 263.559 192.141 264.637 190.689 265.399C188.36 266.622 183.268 267.76 182.05 270.161C181.68 270.891 181.75 271.63 182.078 272.352C182.633 273.574 183.977 274.483 185.24 274.819C192.281 276.689 202.933 268.507 206.938 274.981Q207.304 275.582 207.64 276.199C206.037 279.964 204.589 284.039 202.597 287.603C201.765 285.653 200.743 284.335 199.258 282.855C193.795 282.837 187.564 283.307 182.529 280.819C180.245 279.69 178.99 278.191 178.194 275.778C175.957 268.999 181.698 269.924 183.259 266.295C183.99 264.595 179.401 260.268 178.537 258.444Z"/>
	<path transform="matrix(1.57538 0 0 1.57538 0 -3.05176e-05)" d="M212.961 224.707C223.659 225.275 229.272 226.92 237.213 234.62C236.596 236.209 228.883 243.874 226.912 246.313C224.233 249.628 222.249 254.637 218.811 257.144L218.317 257.212C214.126 254.052 211.213 249.283 209.27 244.468C206.606 237.865 206.746 231.783 209.517 225.251C210.684 225.126 211.812 224.945 212.961 224.707Z"/>
	<path fill="#F9F3F4" transform="matrix(1.57538 0 0 1.57538 0 -3.05176e-05)" d="M392.243 219.222C394.637 216.969 396.957 215.128 399.908 213.655C409.637 208.799 437.617 201.574 448.106 201.937C450.658 202.026 452.899 202.812 454.695 204.683C460.187 210.403 460.021 224.65 459.66 232.228C459.52 235.151 457.549 243.935 458.958 246.049C461.31 249.579 472.224 247.446 471.983 256.392C471.962 257.161 471.886 257.733 471.56 258.444C470.635 260.271 466.06 264.305 466.612 266.248C466.911 267.304 467.627 267.749 468.581 268.157C468.757 268.232 468.936 268.302 469.112 268.377C470.573 268.996 471.271 269.766 471.856 271.249C472.548 273.001 472.299 274.996 471.492 276.664C470.249 279.235 467.836 280.85 465.193 281.733C460.478 283.308 455.527 282.622 450.669 282.856C449.301 284.316 448.206 285.703 447.423 287.575C445.314 284.21 443.958 279.923 442.432 276.245C439.261 269.643 435.627 263.426 431.719 257.239L431.189 257.137C427.678 254.64 425.519 249.328 422.822 245.952C420.546 243.104 414.042 237.198 412.745 234.626C410.649 231.667 407.461 229.262 404.706 226.92C400.695 223.946 396.437 221.836 392.243 219.222Z"/>
	<path fill="#C9DDDF" transform="matrix(1.57538 0 0 1.57538 0 -3.05176e-05)" d="M404.706 226.92C406.186 224.581 408.409 223.732 410.995 223.073C418.478 221.163 430.461 220.691 437.312 224.737C426.431 225.181 420.867 227.055 412.745 234.626C410.649 231.667 407.461 229.262 404.706 226.92Z"/>
	<path fill="#C9DDDF" transform="matrix(1.57538 0 0 1.57538 0 -3.05176e-05)" d="M466.094 268.106C462.888 266.641 457.893 266.072 456.16 262.532C455.678 261.548 455.936 260.532 456.313 259.578C458.059 258.177 461.538 260.028 463.722 259.962C466.402 259.882 468.97 259.057 471.56 258.444C470.635 260.271 466.06 264.305 466.612 266.248C466.911 267.304 467.627 267.749 468.581 268.157C468.757 268.232 468.936 268.302 469.112 268.377C470.573 268.996 471.271 269.766 471.856 271.249C472.548 273.001 472.299 274.996 471.492 276.664C470.249 279.235 467.836 280.85 465.193 281.733C460.478 283.308 455.527 282.622 450.669 282.856C449.301 284.316 448.206 285.703 447.423 287.575C445.314 284.21 443.958 279.923 442.432 276.245C442.838 275.443 443.234 274.557 443.833 273.879C446.929 270.375 454.501 274.042 458.368 274.705C460.765 275.116 462.861 275.052 465.265 274.837C466.304 274.108 467.85 273.152 468.012 271.769C468.179 270.346 466.926 269.125 466.094 268.106Z"/>
	<path transform="matrix(1.57538 0 0 1.57538 0 -3.05176e-05)" d="M437.312 224.737L440.59 225.365C443.324 232.21 443.386 238.279 440.473 245.09C438.5 249.702 435.696 254.111 431.719 257.239L431.189 257.137C427.678 254.64 425.519 249.328 422.822 245.952C420.546 243.104 414.042 237.198 412.745 234.626C420.867 227.055 426.431 225.181 437.312 224.737Z"/>
	<path fill="#F9F3F4" transform="matrix(1.57538 0 0 1.57538 0 -3.05176e-05)" d="M137.878 336.196C143.163 333.313 149.589 333.558 155.241 335.229C158.303 336.134 160.959 337.595 163.704 339.196C164.073 339.467 164.931 339.894 164.941 340.363C165.022 344.124 158.918 347.302 164.955 354.026C169.144 358.693 176.164 360.934 182.286 361.142C186.082 361.271 189.608 360.341 193.078 358.868C195.638 364.417 198.732 369.556 201.757 374.849C206.579 381.258 212.087 386.965 217.164 393.14C222.14 397.874 227.201 401.75 233.341 404.89C223.199 412.14 216.101 420.017 210.268 431.085C208.288 434.843 206.365 438.876 205.675 443.11C205.66 443.199 205.666 443.29 205.662 443.379L205.178 444.687C204.983 444.727 204.787 444.764 204.592 444.808C201.658 445.477 198.889 447.778 196.005 448.807C185.464 452.569 170.714 454.996 159.708 453.43C156.412 452.961 153.281 451.846 150.201 450.622C148.357 449.889 146.185 448.667 144.209 448.46C143.73 447.69 143.405 447.014 143.473 446.079C143.793 441.659 149.952 438.094 152.959 435.367C153.853 433.238 154.555 431.235 154.17 428.892C153.125 422.54 144.106 422.046 139.165 420.438C135.932 419.386 132.859 417.96 130.052 416.034C124.648 412.326 120.902 407.454 119.702 400.936C119.644 399.45 119.982 397.833 120.299 396.382C120.893 393.67 122.209 391.301 124.63 389.835C129.642 386.801 136.926 388.95 142.18 390.337C143.209 390.492 144.32 390.732 145.338 390.413C147.139 389.849 149.321 387.572 150.147 385.914C150.793 384.616 150.455 383.524 149.826 382.322C148.567 379.915 146.327 377.755 144.587 375.656C140.24 370.411 136.36 364.124 134.319 357.587C132.374 351.356 133.376 344.636 136.393 338.922L137.878 336.196Z"/>
	<path fill="#C9DDDF" transform="matrix(1.57538 0 0 1.57538 0 -3.05176e-05)" d="M163.704 339.196C164.073 339.467 164.931 339.894 164.941 340.363C165.022 344.124 158.918 347.302 164.955 354.026C169.144 358.693 176.164 360.934 182.286 361.142C186.082 361.271 189.608 360.341 193.078 358.868C195.638 364.417 198.732 369.556 201.757 374.849C199.36 374.391 195.46 370.781 193.136 369.391C191.376 368.339 189.571 367.598 187.638 366.929L187.078 367.066C180.054 368.77 172.369 369.176 166.019 365.155C162.735 363.075 160.369 360.026 159.526 356.2C158.188 350.129 160.371 344.198 163.704 339.196Z"/>
	<path fill="#C9DDDF" transform="matrix(1.57538 0 0 1.57538 0 -3.05176e-05)" d="M119.702 400.936C122.134 402.204 124.206 404.893 126.185 406.8C130.796 411.242 138.712 414.434 144.905 415.703C149.541 416.653 162.448 413.709 164.265 418.782C164.991 420.808 164.156 423.157 163.22 424.966C161.842 427.631 156.863 434.428 153.936 435.214C153.555 435.316 153.333 435.327 152.959 435.367C153.853 433.238 154.555 431.235 154.17 428.892C153.125 422.54 144.106 422.046 139.165 420.438C135.932 419.386 132.859 417.96 130.052 416.034C124.648 412.326 120.902 407.454 119.702 400.936Z"/>
	<path fill="#C9DDDF" transform="matrix(1.57538 0 0 1.57538 0 -3.05176e-05)" d="M136.393 338.922C138.044 342.474 137.824 347.308 138.81 351.177C141.322 361.04 150.653 374.744 160.527 378.308C163.1 379.236 167.014 379.838 168.237 382.634C168.585 383.43 168.556 384.259 168.229 385.059C166.873 388.369 162.128 390.545 158.944 391.721C154.317 393.43 148.637 394.153 143.962 392.195C143.121 391.842 142.649 391.073 142.18 390.337C143.209 390.492 144.32 390.732 145.338 390.413C147.139 389.849 149.321 387.572 150.147 385.914C150.793 384.616 150.455 383.524 149.826 382.322C148.567 379.915 146.327 377.755 144.587 375.656C140.24 370.411 136.36 364.124 134.319 357.587C132.374 351.356 133.376 344.636 136.393 338.922Z"/>
	<path fill="#C9DDDF" transform="matrix(1.57538 0 0 1.57538 0 -3.05176e-05)" d="M198.968 409.374C192.546 405.954 185.836 402.163 181.018 396.584C178.278 393.41 176.323 389.433 176.775 385.138C176.953 383.438 177.703 381.887 179.129 380.887C180.581 379.87 182.571 380.42 184.111 380.957C186.998 381.964 189.799 383.739 192.51 385.154C198.989 388.536 207.865 392.859 215.059 393.733C216.075 393.857 216.369 393.761 217.164 393.14C222.14 397.874 227.201 401.75 233.341 404.89C223.199 412.14 216.101 420.017 210.268 431.085C208.288 434.843 206.365 438.876 205.675 443.11C205.66 443.199 205.666 443.29 205.662 443.379C205.595 443.291 205.544 443.187 205.461 443.113C204.732 442.468 202.692 443.102 201.708 443.15C199.653 443.251 196.772 442.731 195.253 441.242C194.455 440.459 194.137 439.416 194.123 438.318C194.066 434.081 196.451 430.742 199.315 427.913C197.559 427.891 195.823 427.713 194.083 427.486C188.459 426.751 182.332 425.263 178.763 420.437C176.828 417.821 176.097 414.249 176.658 411.056C176.946 409.418 177.675 407.936 179.112 407.022C182.987 404.559 194.381 408.44 198.968 409.374Z"/>
	<path fill="#F9F3F4" transform="matrix(1.57538 0 0 1.57538 0 -3.05176e-05)" d="M486.136 339.304C487.174 338.683 488.215 338.06 489.281 337.489C494.646 334.615 502.879 332.761 508.825 334.671C511.007 335.373 512.171 336.225 513.215 338.265C516.34 343.691 517.634 350.364 516.014 356.491C514.249 363.169 510.117 370.031 505.719 375.309C503.882 377.514 501.548 379.798 500.19 382.327C499.527 383.563 499.198 384.638 499.882 385.952C500.782 387.679 503.101 390.175 505.1 390.556C505.821 390.693 506.59 390.564 507.309 390.464C512.762 389.052 520.256 386.727 525.447 389.884C527.813 391.324 529.11 393.739 529.699 396.381C530.018 397.812 530.349 399.396 530.339 400.864C529.083 407.447 525.45 412.25 519.974 416.004C512.987 420.793 505.544 421.035 498.147 424.291C496.773 426.378 496.118 428.198 495.526 430.637C496.02 432.372 496.459 434.11 497.237 435.745C500.497 438.228 505.844 441.493 506.412 445.872C506.567 447.069 506.152 447.801 505.549 448.779L505.232 449.302C502.649 448.711 498.043 451.342 495.474 452.21C484.538 455.903 465.846 452.955 454.952 449.082C451.377 447.811 448.165 446.007 444.783 444.334L444.407 443.043Q444.004 441.591 443.536 440.158Q443.068 438.725 442.536 437.315Q442.004 435.905 441.41 434.52Q440.815 433.135 440.159 431.778Q439.503 430.421 438.786 429.095Q438.07 427.769 437.294 426.477Q436.519 425.184 435.686 423.928Q434.854 422.672 433.966 421.454Q433.077 420.236 432.135 419.06Q431.193 417.883 430.2 416.75Q429.206 415.617 428.162 414.53Q427.118 413.442 426.027 412.403Q424.935 411.364 423.798 410.375Q422.661 409.385 421.481 408.448Q420.3 407.511 419.079 406.628Q417.858 405.744 416.598 404.917C422.698 402.011 427.556 397.873 432.569 393.446L433.513 392.169C434.957 390.887 436.221 389.227 437.504 387.774Q443.365 381.349 448.565 374.377C451.204 369.137 454.372 364.199 456.937 358.879C459.25 359.823 461.494 360.591 463.981 360.929C470.219 361.778 477.981 359.946 482.958 356.019C492.411 348.559 484.635 343.587 485.058 339.99L486.136 339.304Z"/>
	<path fill="#C9DDDF" transform="matrix(1.57538 0 0 1.57538 0 -3.05176e-05)" d="M433.513 392.169C434.957 390.887 436.221 389.227 437.504 387.774C437.896 388.725 438.285 389.235 437.877 390.288C437.524 391.202 436.444 391.748 435.546 391.979C434.875 392.151 434.203 392.176 433.513 392.169Z"/>
	<path fill="#C9DDDF" transform="matrix(1.57538 0 0 1.57538 0 -3.05176e-05)" d="M456.937 358.879C459.25 359.823 461.494 360.591 463.981 360.929C470.219 361.778 477.981 359.946 482.958 356.019C492.411 348.559 484.635 343.587 485.058 339.99L486.136 339.304C489.585 343.81 491.504 349.165 490.691 354.877C490.107 358.979 487.941 362.332 484.592 364.732C479.292 368.529 472.021 368.926 465.81 367.738C464.707 367.528 463.62 367.225 462.539 366.923C458.908 368.076 455.897 369.87 452.76 372.008C451.833 372.639 450.677 373.763 449.697 374.194C449.344 374.349 448.941 374.355 448.565 374.377C451.204 369.137 454.372 364.199 456.937 358.879Z"/>
	<path fill="#C9DDDF" transform="matrix(1.57538 0 0 1.57538 0 -3.05176e-05)" d="M497.237 435.745C497.174 435.727 497.111 435.707 497.047 435.689C496.861 435.637 496.672 435.594 496.488 435.536C493.061 434.466 487.94 427.597 486.461 424.383C485.655 422.631 485.098 420.525 485.867 418.66C486.344 417.501 487.348 416.482 488.558 416.11C492.482 414.902 500.95 416.573 506.644 415.384C512.976 414.063 519.837 410.467 524.476 405.954C526.197 404.281 528.129 401.831 530.339 400.864C529.083 407.447 525.45 412.25 519.974 416.004C512.987 420.793 505.544 421.035 498.147 424.291C496.773 426.378 496.118 428.198 495.526 430.637C496.02 432.372 496.459 434.11 497.237 435.745Z"/>
	<path fill="#C9DDDF" transform="matrix(1.57538 0 0 1.57538 0 -3.05176e-05)" d="M513.215 338.265C516.34 343.691 517.634 350.364 516.014 356.491C514.249 363.169 510.117 370.031 505.719 375.309C503.882 377.514 501.548 379.798 500.19 382.327C499.527 383.563 499.198 384.638 499.882 385.952C500.782 387.679 503.101 390.175 505.1 390.556C505.821 390.693 506.59 390.564 507.309 390.464C503.846 392.611 501.24 393.702 497.034 393.217C492.499 392.694 485.445 390.227 482.637 386.478C481.838 385.412 481.442 384.199 481.649 382.868C481.733 382.333 481.917 381.686 482.286 381.277C483.2 380.264 491.634 377.773 494.563 375.626C502.363 369.909 509.11 359.858 511.379 350.451C512.348 346.43 512.563 342.335 513.215 338.265Z"/>
	<path fill="#C9DDDF" transform="matrix(1.57538 0 0 1.57538 0 -3.05176e-05)" d="M432.569 393.446C432.722 393.507 432.874 393.575 433.03 393.631C436.583 394.91 450.451 388.62 453.752 386.992C457.59 385.098 464.476 380.509 468.519 380.352C470.356 380.28 471.601 381.144 472.494 382.707C473.72 384.854 473.395 387.966 472.678 390.224C469.713 399.568 458.911 404.732 451.188 409.386C455.704 408.371 466.769 404.686 470.642 406.95C472.114 407.81 472.967 409.246 473.305 410.893C473.955 414.059 473.237 417.638 471.359 420.266C468.103 424.824 462.347 426.572 457.066 427.338C454.969 427.642 452.821 427.873 450.704 427.976C453.082 430.391 456.129 434.117 456.133 437.677C456.134 438.988 455.564 440.109 454.613 440.995C453.018 442.481 450.524 443.296 448.361 443.192C447.027 443.129 445.638 442.524 444.407 443.043Q444.004 441.591 443.536 440.158Q443.068 438.725 442.536 437.315Q442.004 435.905 441.41 434.52Q440.815 433.135 440.159 431.778Q439.503 430.421 438.786 429.095Q438.07 427.769 437.294 426.477Q436.519 425.184 435.686 423.928Q434.854 422.672 433.966 421.454Q433.077 420.236 432.135 419.06Q431.193 417.883 430.2 416.75Q429.206 415.617 428.162 414.53Q427.118 413.442 426.027 412.403Q424.935 411.364 423.798 410.375Q422.661 409.385 421.481 408.448Q420.3 407.511 419.079 406.628Q417.858 405.744 416.598 404.917C422.698 402.011 427.556 397.873 432.569 393.446Z"/>
	<defs>
		<linearGradient id="gradient_2" gradientUnits="userSpaceOnUse" x1="325.01047" y1="363.64569" x2="324.90512" y2="203.11548">
			<stop offset="0" stop-color="#ED5F8D"/>
			<stop offset="1" stop-color="#FF8BB1"/>
		</linearGradient>
	</defs>
	<path fill="url(#gradient_2)" transform="matrix(1.57538 0 0 1.57538 0 -3.05176e-05)" d="M257.791 219.217C259.861 220.585 262.422 220.863 264.841 220.417C268.207 219.798 271.004 217.271 274.001 215.747C284.679 210.315 302.817 202.096 314.766 202.522C317.82 205.166 321.316 208.012 324.955 209.815C325.074 209.756 325.194 209.698 325.313 209.638C328.757 207.884 331.413 204.914 334.76 203.14C338.252 201.289 350.917 205.188 355.059 206.519C361.788 208.681 368.54 211.913 374.813 215.158C377.898 216.754 381.027 219.322 384.383 220.223C386.62 220.824 389.586 220.766 391.649 219.613C392.006 219.414 391.972 219.428 392.243 219.222C396.437 221.836 400.695 223.946 404.706 226.92C407.461 229.262 410.649 231.667 412.745 234.626C414.042 237.198 420.546 243.104 422.822 245.952C425.519 249.328 427.678 254.64 431.189 257.137L431.719 257.239C435.627 263.426 439.261 269.643 442.432 276.245C443.958 279.923 445.314 284.21 447.423 287.575C447.355 290.299 448.117 292.757 448.577 295.412C453.487 298.253 471.345 306.546 473.369 310.858C473.381 311.623 473.425 311.827 472.813 312.391C470.654 314.378 462.265 313.712 459.412 313.484C463.336 319.681 466.044 326.856 469.479 333.36C471.695 337.556 474.76 341.41 476.696 345.734C477.155 346.76 477.272 347.523 477.055 348.636C476.985 348.992 476.868 349.264 476.676 349.57C469.893 354.306 462.965 353.831 455.127 352.924C452.328 352.6 449.935 352.23 447.197 353.124Q445.257 356.991 443.371 360.884C441.115 361.759 439.949 363.794 438.386 365.529L437.964 366.768C428.43 375.789 421.26 382.797 409.408 389.021L408.586 388.892L408.051 390.239C407.218 392.434 406.236 394.832 407.24 397.154C407.491 397.736 407.372 397.55 407.803 397.941L405.369 399.287C399.943 397.836 394.831 396.77 389.203 396.685L387.226 396.741C380.555 396.543 373.859 399.481 368.146 402.664C368.109 402.653 368.072 402.644 368.035 402.631C367.62 402.481 367.344 402.351 366.894 402.356C364.294 402.38 361.208 403.261 358.618 403.693Q350.297 405.145 341.895 406.021C328.051 407.42 315.078 406.873 301.293 405.278C296.661 404.742 284.993 401.827 281.321 402.348C275.704 399.317 269.273 396.577 262.776 396.715L256.834 396.727C254.135 397.143 246.083 399.293 244.247 399.009C243.657 398.917 243.034 398.472 242.541 398.166C243.325 395.073 243.066 393.186 241.952 390.257L241.399 388.898L240.893 389.241C234.511 385.911 227.671 381.411 222.325 376.598C218.905 373.518 215.747 369.812 212.058 367.083L211.595 365.558C210.068 363.763 208.676 361.8 206.56 360.679Q204.655 356.925 202.814 353.139C200.215 352.178 197.692 352.609 195.015 352.929C187.312 353.85 179.81 354.409 173.275 349.446C173.004 348.899 173.066 349.102 172.92 348.418C172.737 347.555 172.821 346.808 173.176 346.007C175.268 341.296 178.606 336.839 181.034 332.251C184.273 326.128 186.81 319.194 190.65 313.457C186.734 313.807 182.253 314.279 178.455 312.921C177.508 312.582 177.095 312.238 176.656 311.344C177.101 306.075 197.928 299.265 201.154 295.257C202.373 293.743 202.789 289.527 202.597 287.603C204.589 284.039 206.037 279.964 207.64 276.199C210.803 269.61 214.367 263.361 218.317 257.212L218.811 257.144C222.249 254.637 224.233 249.628 226.912 246.313C228.883 243.874 236.596 236.209 237.213 234.62C239.585 231.786 242.321 229.464 245.163 227.124C249.193 223.99 253.398 221.757 257.791 219.217Z"/>
	<path fill="#F9F3F4" transform="matrix(1.57538 0 0 1.57538 0 -3.05176e-05)" d="M379.289 230.92C381.537 231.905 383.296 237.442 384.255 239.699C382.686 242.228 381.178 244.412 378.894 246.349C376.719 244.116 375.163 241.111 373.564 238.449C374.996 235.559 376.993 233.157 379.289 230.92Z"/>
	<path fill="#F9F3F4" transform="matrix(1.57538 0 0 1.57538 0 -3.05176e-05)" d="M270.208 230.888C272.74 231.791 275.091 236.049 276.4 238.274C275.044 240.89 273.58 243.546 271.624 245.766L270.895 245.933C268.765 244.97 267.041 241.746 265.718 239.84C266.967 236.693 268.276 233.684 270.208 230.888Z"/>
	<path fill="#F9F3F4" transform="matrix(1.57538 0 0 1.57538 0 -3.05176e-05)" d="M292.388 293.661C295.945 293.53 299.738 294.876 302.758 296.704C306.332 298.866 309.474 302.447 310.406 306.59C310.889 308.736 310.83 311.026 309.551 312.895C308.119 314.988 305.769 315.981 303.371 316.417C299.815 316.51 296.941 316.077 293.757 314.324C289.778 312.134 286.029 308.365 284.849 303.888C284.299 301.8 284.367 299.602 285.547 297.74C287.077 295.327 289.721 294.241 292.388 293.661Z"/>
	<path fill="#F9F3F4" transform="matrix(1.57538 0 0 1.57538 0 -3.05176e-05)" d="M355.616 293.658C357.89 293.619 360.313 294.078 362.242 295.345C363.88 296.421 364.881 298.104 365.197 300.024C365.745 303.354 364.413 306.556 362.405 309.156C359.259 313.229 354.735 315.77 349.648 316.431C347.276 316.493 345.338 316.371 343.188 315.259C341.45 314.359 340.12 312.962 339.596 311.047C338.802 308.144 339.795 304.867 341.358 302.398C344.6 297.277 349.901 294.861 355.616 293.658Z"/>
	<path fill="#F9F3F4" transform="matrix(1.57538 0 0 1.57538 0 -3.05176e-05)" d="M173.275 349.446C175.993 348.731 178.919 347.957 181.084 346.055C185.153 342.48 201.808 311.982 207.475 316.032C208.54 316.793 208.763 318.352 208.847 319.568C209.133 323.691 205.411 335.428 204.572 341.103C204.126 344.117 203.888 350.719 202.814 353.139C200.215 352.178 197.692 352.609 195.015 352.929C187.312 353.85 179.81 354.409 173.275 349.446Z"/>
	<path fill="#F9F3F4" transform="matrix(1.57538 0 0 1.57538 0 -3.05176e-05)" d="M447.197 353.124C446.197 350.761 445.081 338.831 444.351 334.991C443.474 330.379 441.113 325.246 441.089 320.609C441.08 318.894 441.245 317.223 442.487 315.957C449.283 313.037 463.365 340.643 468.007 345.213C470.497 347.664 473.525 348.42 476.676 349.57C469.893 354.306 462.965 353.831 455.127 352.924C452.328 352.6 449.935 352.23 447.197 353.124Z"/>
	<path fill="#F9F3F4" transform="matrix(1.57538 0 0 1.57538 0 -3.05176e-05)" d="M270.083 252.084C274.993 251.808 280.012 251.758 284.228 254.731C286.514 256.343 288.069 258.691 288.502 261.47C289.037 264.907 287.685 268.452 285.683 271.209C281.522 276.939 274.69 279.967 267.889 281.118C263.282 281.585 258.078 281.339 254.103 278.715C251.743 277.157 250.047 274.825 249.496 272.032C248.819 268.6 250.116 265.163 252.06 262.366C256.264 256.318 263.043 253.309 270.083 252.084Z"/>
	<path fill="#F9F3F4" transform="matrix(1.57538 0 0 1.57538 0 -3.05176e-05)" d="M372.545 252.058C379.094 251.694 385.031 252.399 390.743 255.84C395.156 258.499 399.305 262.682 400.488 267.852C401.093 270.496 400.727 273.191 399.183 275.453C396.946 278.731 393.323 280.293 389.578 281.09C383.349 281.744 377.522 280.797 372.017 277.744C367.334 275.147 363.093 271.104 361.658 265.787C360.971 263.241 361.097 260.608 362.462 258.303C364.639 254.626 368.591 253 372.545 252.058Z"/>
	<path fill="#F9F3F4" transform="matrix(1.57538 0 0 1.57538 0 -3.05176e-05)" d="M322.629 224.789C325.667 224.666 328.382 224.812 331.316 225.667C335.632 226.926 339.501 229.297 341.626 233.4C343.713 237.428 343.749 242.077 342.422 246.344C339.857 254.589 334.561 260.073 327.063 263.976C326.716 264.082 326.373 264.179 326.018 264.253C323.701 264.733 320.957 263.207 319.075 261.955C313.146 258.012 308.264 250.904 306.938 243.88C306.153 239.719 306.849 235.272 309.337 231.789C312.347 227.575 317.712 225.636 322.629 224.789Z"/>
	<path fill="#F9F3F4" transform="matrix(1.57538 0 0 1.57538 0 -3.05176e-05)" d="M389.584 317.103C388.736 312.88 388.258 308.38 390.795 304.589C392.335 302.287 394.833 300.539 397.567 300.029C402.109 299.183 406.28 301.53 409.825 304.09C425.104 315.124 434.884 337.526 437.687 355.798C438.183 359.034 438.344 362.261 438.386 365.529L437.964 366.768C428.43 375.789 421.26 382.797 409.408 389.021L408.586 388.892L408.051 390.239C407.218 392.434 406.236 394.832 407.24 397.154C407.491 397.736 407.372 397.55 407.803 397.941L405.369 399.287C399.943 397.836 394.831 396.77 389.203 396.685L387.226 396.741C388.062 395.091 388.787 393.401 389.329 391.63C390.999 386.182 392.184 374.19 389.378 369.258C388.921 368.454 388.777 368.52 387.919 368.317C384.601 368.651 381.479 368.44 378.274 367.493Q377.624 367.295 376.984 367.066Q376.344 366.836 375.716 366.576Q375.088 366.315 374.473 366.024Q373.859 365.733 373.259 365.412Q372.66 365.092 372.077 364.742Q371.494 364.392 370.929 364.014Q370.364 363.636 369.818 363.231Q369.272 362.826 368.747 362.394Q368.221 361.963 367.718 361.506Q367.214 361.049 366.733 360.569Q366.253 360.088 365.796 359.584Q365.34 359.08 364.909 358.554Q364.477 358.029 364.073 357.483Q363.668 356.937 363.29 356.371Q362.912 355.806 362.563 355.223Q362.213 354.64 361.893 354.04C358.503 347.76 357.978 340.678 360.006 333.875C361.435 330.261 363.552 326.837 366.43 324.2C373.203 317.991 380.766 316.773 389.584 317.103Z"/>
	<path fill="#E75483" transform="matrix(1.57538 0 0 1.57538 0 -3.05176e-05)" d="M406.676 353.787C410.257 366.117 411.565 376.208 408.586 388.892L408.051 390.239C407.218 392.434 406.236 394.832 407.24 397.154C407.491 397.736 407.372 397.55 407.803 397.941L405.369 399.287C399.943 397.836 394.831 396.77 389.203 396.685L387.226 396.741C388.062 395.091 388.787 393.401 389.329 391.63C390.999 386.182 392.184 374.19 389.378 369.258C388.921 368.454 388.777 368.52 387.919 368.317C389.173 368.059 390.422 367.777 391.645 367.398C398.467 365.284 403.519 360.013 406.676 353.787Z"/>
	<path fill="#B84D77" transform="matrix(1.57538 0 0 1.57538 0 -3.05176e-05)" d="M389.203 396.685C390.853 396.002 393.05 396.912 394.808 396.153C399.253 394.234 403.614 392.158 408.051 390.239C407.218 392.434 406.236 394.832 407.24 397.154C407.491 397.736 407.372 397.55 407.803 397.941L405.369 399.287C399.943 397.836 394.831 396.77 389.203 396.685Z"/>
	<path transform="matrix(1.57538 0 0 1.57538 0 -3.05176e-05)" d="M360.006 333.875C361.435 330.261 363.552 326.837 366.43 324.2C373.203 317.991 380.766 316.773 389.584 317.103C392.508 317.732 395.402 318.325 398.388 318.586C400.525 318.774 402.858 318.68 404.952 319.077C405.675 319.215 405.811 319.235 406.323 319.792C406.377 321.531 404.359 322.566 404.27 324.221C406.995 325.504 414.612 323.556 415.827 326.551C416.12 327.275 416.062 328.045 415.659 328.715C414.205 331.133 406.981 332.171 407.747 335.319C407.773 335.424 408.187 336.287 408.21 336.337C410.312 340.859 408.706 348.429 407.015 352.916Q406.854 353.355 406.676 353.787C403.519 360.013 398.467 365.284 391.645 367.398C390.422 367.777 389.173 368.059 387.919 368.317C384.601 368.651 381.479 368.44 378.274 367.493Q377.624 367.295 376.984 367.066Q376.344 366.836 375.716 366.576Q375.088 366.315 374.473 366.024Q373.859 365.733 373.259 365.412Q372.66 365.092 372.077 364.742Q371.494 364.392 370.929 364.014Q370.364 363.636 369.818 363.231Q369.272 362.826 368.747 362.394Q368.221 361.963 367.718 361.506Q367.214 361.049 366.733 360.569Q366.253 360.088 365.796 359.584Q365.34 359.08 364.909 358.554Q364.477 358.029 364.073 357.483Q363.668 356.937 363.29 356.371Q362.912 355.806 362.563 355.223Q362.213 354.64 361.893 354.04C358.503 347.76 357.978 340.678 360.006 333.875Z"/>
	<path fill="#F9F3F4" transform="matrix(1.57538 0 0 1.57538 0 -3.05176e-05)" d="M385.303 350.018L386.907 350.109C387.632 350.576 387.665 350.631 387.995 351.43C387.856 352.565 387.589 353.127 386.936 354.059C386.586 354.032 386.118 354.014 385.788 353.9C385.047 353.643 384.73 353.093 384.44 352.423C384.476 351.163 384.625 351.019 385.303 350.018Z"/>
	<path fill="#F9F3F4" transform="matrix(1.57538 0 0 1.57538 0 -3.05176e-05)" d="M389.327 332.01C390.605 331.944 391.576 331.848 392.66 332.64C393.455 333.221 394.023 334.015 394.055 335.036C394.098 336.428 393.471 337.12 392.551 338.037C391.112 338.064 390.295 337.848 389.2 336.861C388.436 336.172 388.031 335.254 388.059 334.214C388.084 333.261 388.723 332.662 389.327 332.01Z"/>
	<path fill="#F9F3F4" transform="matrix(1.57538 0 0 1.57538 0 -3.05176e-05)" d="M375.145 351.584C376.205 351.795 377.095 351.937 377.926 352.695C378.701 353.401 379.222 354.47 379.093 355.531C378.931 356.872 378.179 357.448 377.132 358.126C375.7 358.027 374.464 357.993 373.478 356.793C372.958 356.159 372.76 355.416 372.896 354.608C373.139 353.167 374.038 352.419 375.145 351.584Z"/>
	<path fill="#F9F3F4" transform="matrix(1.57538 0 0 1.57538 0 -3.05176e-05)" d="M399.661 343.696C400.175 343.771 400.214 343.875 400.605 344.186C401.484 346.979 401.861 349.866 402.174 352.768C399.893 353.821 397.561 354.726 395.22 355.635C394.499 355.815 394.395 355.878 393.708 355.628C392.419 353.559 392.943 349.666 392.968 347.248C395.02 345.793 397.374 344.72 399.661 343.696Z"/>
	<path fill="#F9F3F4" transform="matrix(1.57538 0 0 1.57538 0 -3.05176e-05)" d="M372.14 329.151C373.614 329.016 375.013 329.312 376.38 329.858Q376.961 330.094 377.516 330.388Q378.07 330.682 378.593 331.029Q379.115 331.377 379.6 331.775Q380.085 332.174 380.527 332.618Q380.97 333.063 381.366 333.55Q381.761 334.037 382.106 334.562Q382.451 335.086 382.741 335.642Q383.032 336.198 383.265 336.781C384.256 339.264 384.486 342.249 383.375 344.733C382.352 347.022 380.485 348.333 378.19 349.15C376.628 349.271 375.031 349.226 373.549 348.672C370.416 347.502 367.889 344.897 366.631 341.82C365.609 339.32 365.35 336.28 366.487 333.772C367.652 331.204 369.641 330.109 372.14 329.151Z"/>
	<path fill="#F9F3F4" transform="matrix(1.57538 0 0 1.57538 0 -3.05176e-05)" d="M211.595 365.558C211.663 362.87 211.728 360.183 212.06 357.512C214.337 339.195 224.201 316.363 239.031 304.952C242.643 302.172 247.137 299.238 251.913 299.968C254.605 300.38 257.382 301.918 258.961 304.166C261.69 308.052 261.24 312.727 260.444 317.124C269.401 316.782 276.618 317.84 283.549 324.162C286.378 326.743 288.679 330.281 290.012 333.863C292.056 340.824 291.523 347.891 287.979 354.275C284.434 360.661 278.385 365.652 271.32 367.612Q270.198 367.93 269.05 368.135Q267.901 368.339 266.738 368.428Q265.575 368.517 264.409 368.488Q263.243 368.46 262.086 368.316C261.504 368.406 261.204 368.289 260.838 368.79C258.257 372.324 258.791 383.604 259.705 387.989Q260.162 390.268 260.934 392.46Q261.706 394.652 262.776 396.715L256.834 396.727C254.135 397.143 246.083 399.293 244.247 399.009C243.657 398.917 243.034 398.472 242.541 398.166C243.325 395.073 243.066 393.186 241.952 390.257L241.399 388.898L240.893 389.241C234.511 385.911 227.671 381.411 222.325 376.598C218.905 373.518 215.747 369.812 212.058 367.083L211.595 365.558Z"/>
	<path fill="#E75483" transform="matrix(1.57538 0 0 1.57538 0 -3.05176e-05)" d="M243.304 353.827C246.952 360.335 251.857 365.699 259.307 367.708C260.221 367.955 261.157 368.135 262.086 368.316C261.504 368.406 261.204 368.289 260.838 368.79C258.257 372.324 258.791 383.604 259.705 387.989Q260.162 390.268 260.934 392.46Q261.706 394.652 262.776 396.715L256.834 396.727C254.135 397.143 246.083 399.293 244.247 399.009C243.657 398.917 243.034 398.472 242.541 398.166C243.325 395.073 243.066 393.186 241.952 390.257L241.399 388.898C238.252 376.539 239.903 365.862 243.304 353.827Z"/>
	<path fill="#B84D77" transform="matrix(1.57538 0 0 1.57538 0 -3.05176e-05)" d="M241.952 390.257C247.028 392.167 251.573 395.152 256.834 396.727C254.135 397.143 246.083 399.293 244.247 399.009C243.657 398.917 243.034 398.472 242.541 398.166C243.325 395.073 243.066 393.186 241.952 390.257Z"/>
	<path transform="matrix(1.57538 0 0 1.57538 0 -3.05176e-05)" d="M260.444 317.124C269.401 316.782 276.618 317.84 283.549 324.162C286.378 326.743 288.679 330.281 290.012 333.863C292.056 340.824 291.523 347.891 287.979 354.275C284.434 360.661 278.385 365.652 271.32 367.612Q270.198 367.93 269.05 368.135Q267.901 368.339 266.738 368.428Q265.575 368.517 264.409 368.488Q263.243 368.46 262.086 368.316C261.157 368.135 260.221 367.955 259.307 367.708C251.857 365.699 246.952 360.335 243.304 353.827C240.732 347.729 240.482 341.807 241.999 335.445C242.959 331.423 235.642 331.729 234.315 328.526C234.004 327.775 234.064 326.917 234.401 326.192C235.335 324.18 243.489 324.994 245.792 324.29C245.857 322.86 243.794 321.578 243.759 319.847C244.228 319.245 244.336 319.237 245.064 319.086C247.023 318.679 249.267 318.781 251.279 318.604C254.379 318.333 257.4 317.741 260.444 317.124Z"/>
	<path fill="#F9F3F4" transform="matrix(1.57538 0 0 1.57538 0 -3.05176e-05)" d="M262.331 350.051C262.842 350.035 263.406 349.992 263.912 350.072C264.74 350.204 265.049 350.552 265.529 351.187C265.668 352.28 265.37 352.838 264.9 353.78C264.629 353.855 264.182 353.997 263.907 353.988C263.221 353.966 262.639 353.599 262.341 352.982C261.886 352.043 262.123 351.014 262.331 350.051Z"/>
	<path fill="#F9F3F4" transform="matrix(1.57538 0 0 1.57538 0 -3.05176e-05)" d="M257.844 331.976C259.316 331.921 260.204 331.966 261.449 332.815C261.731 333.338 261.974 333.583 261.945 334.2C261.866 335.844 260.822 336.713 259.746 337.81C258.756 338.058 258.297 338.061 257.306 337.824C256.539 337.162 256.135 336.807 256.097 335.709C256.039 334.036 256.727 333.132 257.844 331.976Z"/>
	<path fill="#F9F3F4" transform="matrix(1.57538 0 0 1.57538 0 -3.05176e-05)" d="M273.649 351.592C274.087 351.651 274.27 351.659 274.702 351.791C275.686 352.092 276.425 352.726 276.857 353.656C277.27 354.548 277.189 355.518 276.79 356.399C276.358 357.352 275.485 357.652 274.592 358.041C274.087 358.043 273.542 358.059 273.044 357.963C272.231 357.807 271.572 357.281 271.201 356.543C270.822 355.789 270.85 355.003 271.11 354.222C271.563 352.859 272.432 352.251 273.649 351.592Z"/>
	<path fill="#F9F3F4" transform="matrix(1.57538 0 0 1.57538 0 -3.05176e-05)" d="M249.369 343.499C252.084 344.084 254.617 345.775 256.978 347.16C257.035 349.843 257.586 353.821 256.073 356.116C253.293 355.085 250.583 354.026 247.9 352.756C248.022 349.682 248.793 346.521 249.369 343.499Z"/>
	<path fill="#F9F3F4" transform="matrix(1.57538 0 0 1.57538 0 -3.05176e-05)" d="M275.766 329.138C277.318 329.005 278.934 329.471 280.314 330.158C282.135 331.065 283.289 332.635 283.829 334.578C284.646 337.516 284.034 340.809 282.513 343.411C280.67 346.564 278.121 348.262 274.67 349.194C273.277 349.23 271.956 349.214 270.648 348.668C268.77 347.883 267.278 346.569 266.533 344.647C265.469 341.903 265.863 338.571 267.147 335.971C268.973 332.273 271.954 330.339 275.766 329.138Z"/>
	<path fill="#F9F3F4" transform="matrix(1.57538 0 0 1.57538 0 -3.05176e-05)" d="M290.012 333.863C294.397 332.062 298.522 329.879 303.085 328.488C318.135 323.902 337.586 324.193 352.17 330.334C354.772 331.429 357.353 332.965 360.006 333.875C357.978 340.678 358.503 347.76 361.893 354.04Q362.213 354.64 362.563 355.223Q362.912 355.806 363.29 356.371Q363.668 356.937 364.073 357.483Q364.477 358.029 364.909 358.554Q365.34 359.08 365.796 359.584Q366.253 360.088 366.733 360.569Q367.214 361.049 367.718 361.506Q368.221 361.963 368.747 362.394Q369.272 362.826 369.818 363.231Q370.364 363.636 370.929 364.014Q371.494 364.392 372.077 364.742Q372.66 365.092 373.259 365.412Q373.859 365.733 374.473 366.024Q375.088 366.315 375.716 366.576Q376.344 366.836 376.984 367.066Q377.624 367.295 378.274 367.493C381.479 368.44 384.601 368.651 387.919 368.317C388.777 368.52 388.921 368.454 389.378 369.258C392.184 374.19 390.999 386.182 389.329 391.63C388.787 393.401 388.062 395.091 387.226 396.741C380.555 396.543 373.859 399.481 368.146 402.664C368.109 402.653 368.072 402.644 368.035 402.631C367.62 402.481 367.344 402.351 366.894 402.356C364.294 402.38 361.208 403.261 358.618 403.693Q350.297 405.145 341.895 406.021C328.051 407.42 315.078 406.873 301.293 405.278C296.661 404.742 284.993 401.827 281.321 402.348C275.704 399.317 269.273 396.577 262.776 396.715Q261.706 394.652 260.934 392.46Q260.162 390.268 259.705 387.989C258.791 383.604 258.257 372.324 260.838 368.79C261.204 368.289 261.504 368.406 262.086 368.316Q263.243 368.46 264.409 368.488Q265.575 368.516 266.738 368.428Q267.901 368.339 269.05 368.135Q270.198 367.93 271.32 367.612C278.385 365.652 284.434 360.661 287.979 354.275C291.523 347.891 292.056 340.824 290.012 333.863Z"/>
	<path transform="matrix(1.57538 0 0 1.57538 0 -3.05176e-05)" d="M323.501 352.086C324.949 351.978 326.422 352.066 327.865 352.223C330.227 352.479 333.112 353.244 334.602 355.257C335.314 356.219 335.608 357.384 335.382 358.561C334.83 361.431 332.381 362.952 330.135 364.439C331.127 366.45 332.579 369.261 334.51 370.498C339.067 373.419 341.408 365.747 345.241 365.288C346.233 365.169 347.121 365.641 347.801 366.323C348.73 367.253 349.262 368.325 349.233 369.655C349.18 372.028 347.353 374.411 345.686 375.947C343.288 378.156 340.461 379.47 337.182 379.341C332.49 379.156 328.96 376.774 325.845 373.472C325.545 373.001 325.434 372.875 325.013 372.556C322.901 374.704 320.517 376.946 317.798 378.286C314.902 379.714 312.048 379.874 309.006 378.798C305.895 377.698 303.088 375.456 301.751 372.385C301.092 370.871 300.521 368.524 301.351 366.959C301.749 366.209 302.306 365.663 303.144 365.431C307.946 364.097 308.008 369.104 311.115 370.675C312.053 371.15 313.101 371.203 314.092 370.866C316.934 369.901 318.589 366.951 319.884 364.453Q319.574 364.258 319.268 364.059C317.221 362.72 315.02 361.043 314.601 358.452Q314.566 358.232 314.554 358.01Q314.542 357.787 314.554 357.565Q314.566 357.342 314.602 357.122Q314.637 356.902 314.696 356.687Q314.755 356.473 314.836 356.265Q314.917 356.058 315.019 355.86Q315.122 355.662 315.245 355.476Q315.368 355.291 315.51 355.119C317.417 352.775 320.704 352.42 323.501 352.086Z"/>
</svg>
